<?xml version="1.0" standalone="no"?>
<!DOCTYPE svg PUBLIC "-//W3C//DTD SVG 20010904//EN"
 "http://www.w3.org/TR/2001/REC-SVG-20010904/DTD/svg10.dtd">
<svg version="1.0" xmlns="http://www.w3.org/2000/svg"
 width="1247.000000pt" height="1247.000000pt" viewBox="0 0 1247.000000 1247.000000"
 preserveAspectRatio="xMidYMid meet">
<metadata>
Created by potrace 1.14, written by Peter Selinger 2001-2017
</metadata>
<g transform="translate(0.000000,1247.000000) scale(0.100000,-0.100000)"
fill="#000000" stroke="none">
<path d="M7468 12465 c-2 -1 -57 -6 -123 -9 -66 -3 -133 -8 -150 -10 -16 -2
-59 -7 -95 -11 -36 -4 -76 -8 -90 -10 -82 -12 -116 -17 -125 -19 -5 -2 -32 -7
-60 -11 -27 -5 -52 -9 -55 -10 -113 -24 -199 -45 -330 -80 -124 -34 -334 -79
-420 -90 -25 -3 -56 -8 -70 -10 -14 -3 -45 -7 -69 -10 -70 -8 -221 -40 -381
-80 -98 -24 -484 -151 -555 -181 -22 -10 -44 -19 -50 -20 -66 -15 -404 -175
-574 -271 -51 -29 -95 -53 -96 -53 -11 0 -308 -192 -325 -210 -3 -3 -34 -27
-70 -55 -137 -105 -460 -412 -635 -605 -207 -229 -462 -565 -601 -795 -27 -44
-51 -82 -54 -85 -21 -19 -278 -517 -295 -572 -7 -20 -38 -94 -65 -153 -56
-120 -217 -639 -245 -785 -2 -15 -13 -74 -22 -120 -2 -14 -8 -43 -13 -65 -8
-35 -21 -126 -35 -237 -2 -18 -6 -49 -9 -68 -3 -19 -8 -73 -12 -120 -4 -47 -8
-98 -10 -115 -6 -46 -6 -604 0 -650 2 -22 7 -76 11 -120 3 -44 11 -116 16
-160 6 -44 12 -91 14 -105 2 -14 6 -47 9 -74 5 -39 41 -240 60 -331 3 -11 16
-63 31 -115 15 -52 31 -113 36 -135 16 -62 90 -293 111 -345 6 -14 14 -34 18
-45 67 -171 180 -411 273 -580 45 -83 215 -356 227 -365 3 -3 33 -43 65 -90
182 -259 499 -604 765 -830 47 -40 99 -84 115 -99 17 -15 48 -40 70 -56 46
-35 52 -39 125 -98 157 -125 511 -357 735 -482 143 -80 368 -188 540 -260 179
-75 514 -177 690 -210 122 -23 196 -36 235 -41 25 -3 47 -8 50 -9 3 -2 37 -6
75 -10 39 -3 77 -8 85 -10 85 -23 702 -23 940 0 25 2 68 6 95 9 116 10 316 37
460 62 158 27 388 90 460 127 35 18 38 21 20 27 -11 4 -94 9 -185 9 -342 4
-522 11 -677 26 -216 21 -290 30 -413 51 -649 110 -1161 304 -1609 611 -275
190 -479 405 -765 808 -58 83 -109 155 -114 160 -61 80 -275 438 -342 574
-115 234 -245 575 -289 756 -5 22 -18 74 -29 115 -12 41 -30 120 -42 175 -19
88 -27 134 -46 250 -4 27 -12 73 -19 115 -2 8 -6 47 -10 85 -4 39 -9 78 -11
87 -26 146 -26 842 1 1023 2 17 7 57 10 90 10 99 14 125 36 245 11 63 23 129
26 145 18 114 162 629 198 710 8 17 28 64 45 105 18 41 56 126 86 189 30 62
54 116 54 119 0 10 129 260 182 352 78 137 79 138 126 206 23 35 42 66 42 69
0 3 5 11 10 18 6 7 28 37 50 67 22 30 43 60 48 65 4 6 21 28 37 50 137 185
338 416 526 604 224 225 565 505 787 648 48 30 99 64 114 74 15 10 32 19 38
19 5 0 10 3 10 8 0 4 10 12 23 18 12 6 74 42 137 79 150 88 485 258 535 271 9
2 140 54 190 75 188 80 618 187 880 219 244 29 350 35 675 35 329 0 483 -7
655 -31 28 -4 60 -8 72 -9 11 -2 29 -5 40 -9 10 -3 38 -8 63 -11 131 -17 522
-116 820 -206 36 -11 76 -22 89 -25 14 -3 28 -7 33 -10 4 -3 16 -7 25 -9 10
-2 108 -31 218 -65 110 -33 204 -59 210 -57 19 7 -87 96 -213 180 -223 149
-406 249 -707 387 -178 82 -544 216 -644 236 -14 3 -28 7 -33 10 -4 3 -16 7
-25 9 -10 2 -58 12 -108 24 -120 26 -145 32 -175 35 -14 2 -34 6 -45 9 -11 3
-45 9 -75 12 -30 4 -57 8 -60 10 -3 2 -42 7 -85 10 -44 4 -87 8 -95 10 -8 2
-64 6 -125 10 -60 4 -126 9 -145 11 -41 5 -697 14 -702 9z"/>
<path d="M8228 10595 c-2 -2 -65 -6 -140 -9 -75 -3 -143 -8 -150 -10 -7 -3
-42 -7 -78 -10 -36 -3 -74 -8 -85 -10 -11 -2 -54 -9 -95 -16 -41 -6 -111 -21
-155 -32 -44 -11 -89 -21 -100 -23 -11 -1 -40 -8 -65 -15 -25 -7 -49 -15 -55
-16 -101 -26 -423 -144 -462 -170 -13 -8 -23 -12 -23 -9 0 7 -292 -143 -347
-178 -24 -15 -47 -27 -52 -27 -5 0 -11 -3 -13 -7 -1 -5 -41 -33 -88 -63 -47
-30 -92 -60 -100 -67 -8 -7 -56 -43 -106 -80 -153 -114 -345 -294 -479 -448
-33 -38 -69 -80 -80 -92 -72 -79 -191 -247 -288 -405 -57 -92 -160 -293 -206
-403 -24 -55 -50 -116 -58 -135 -70 -161 -179 -592 -198 -785 -3 -33 -8 -71
-10 -85 -8 -42 -18 -240 -18 -335 0 -99 11 -338 18 -376 2 -13 7 -45 9 -72 3
-26 10 -73 15 -105 6 -31 13 -75 17 -97 26 -179 145 -555 240 -760 15 -33 28
-62 29 -65 3 -10 70 -145 75 -150 7 -7 30 -48 48 -85 9 -16 28 -49 44 -72 15
-23 28 -46 28 -51 0 -6 3 -12 8 -14 4 -1 16 -19 26 -38 11 -19 28 -46 38 -60
34 -46 142 -185 152 -197 6 -6 33 -37 60 -70 157 -185 643 -632 709 -650 9 -3
17 -9 17 -13 0 -9 115 -65 152 -74 15 -3 37 -2 50 3 23 8 24 7 20 -21 -3 -21
2 -36 19 -54 37 -39 199 -126 199 -106 -1 8 -34 47 -184 206 -61 66 -116 124
-121 130 -6 6 -42 45 -80 86 -118 127 -168 188 -313 385 -181 244 -369 587
-441 801 -96 289 -121 671 -66 1034 16 104 28 171 42 225 8 33 17 67 19 75 17
71 87 295 104 335 81 183 111 246 162 344 158 301 288 509 466 746 42 55 92
118 111 140 48 53 279 284 312 311 15 12 60 49 100 82 88 71 297 212 315 212
7 0 14 4 16 8 6 16 315 179 341 180 4 0 18 7 30 15 34 22 353 149 407 162 8 2
69 17 134 34 66 17 138 33 160 37 22 3 44 8 48 10 4 3 26 7 49 9 23 3 60 7 83
11 175 26 573 37 801 21 435 -30 856 -144 1220 -331 66 -33 122 -63 125 -66 3
-3 41 -27 85 -54 170 -103 319 -228 576 -485 300 -301 429 -455 605 -720 119
-179 127 -191 143 -191 15 0 14 35 -4 95 -9 27 -17 59 -19 70 -6 31 -85 267
-100 300 -129 274 -177 361 -314 565 -202 299 -341 456 -660 740 -159 142
-308 259 -372 292 -14 7 -27 16 -30 19 -17 19 -209 119 -343 178 -87 39 -255
119 -375 179 -119 60 -253 124 -297 142 -208 84 -468 156 -675 185 -8 1 -35 5
-60 9 -122 18 -511 41 -522 31z"/>
<path d="M1526 10258 c-15 -18 -34 -41 -42 -51 -140 -172 -325 -451 -437 -657
-16 -30 -40 -73 -52 -96 -24 -41 -109 -212 -147 -294 -12 -25 -25 -52 -30 -60
-4 -8 -11 -22 -14 -30 -3 -8 -13 -31 -21 -50 -9 -19 -18 -39 -19 -45 -2 -5
-21 -52 -44 -104 -49 -112 -184 -475 -205 -551 -2 -8 -20 -67 -40 -130 -62
-198 -147 -537 -170 -680 -3 -19 -7 -46 -10 -60 -2 -14 -7 -47 -10 -75 -3 -27
-7 -66 -10 -85 -9 -72 -18 -181 -31 -380 -16 -239 -10 -869 11 -1080 2 -25 7
-79 10 -120 4 -41 8 -86 10 -100 2 -14 7 -50 10 -80 3 -30 8 -62 10 -70 2 -8
7 -35 10 -60 3 -25 8 -52 10 -60 2 -8 7 -31 10 -50 3 -19 10 -51 15 -70 5 -19
11 -48 13 -65 3 -16 19 -88 37 -160 17 -71 33 -140 36 -153 10 -50 96 -335
142 -477 76 -229 156 -438 228 -593 19 -41 34 -76 34 -78 0 -2 32 -69 70 -149
139 -289 338 -623 533 -895 69 -96 224 -296 271 -351 17 -19 50 -58 73 -85
101 -117 205 -226 380 -394 131 -126 184 -174 283 -259 41 -36 80 -70 85 -75
6 -6 28 -24 50 -41 42 -31 69 -53 89 -70 15 -14 114 -89 206 -157 125 -92 402
-274 519 -341 505 -289 1065 -517 1591 -647 47 -12 112 -28 145 -36 83 -21 71
-19 260 -58 184 -38 436 -82 585 -102 30 -4 66 -9 80 -11 138 -19 595 -25 875
-10 77 5 176 10 220 12 45 3 103 7 130 9 28 3 84 7 125 11 41 3 86 8 100 10
14 2 54 7 90 10 67 7 175 21 220 30 14 2 41 7 60 9 19 3 64 12 100 21 36 9 72
18 80 20 60 13 223 57 258 69 23 8 42 13 42 11 0 -2 19 3 43 11 23 8 71 23
107 34 74 21 364 122 413 144 17 7 59 24 92 37 33 13 64 27 70 31 5 4 14 8 21
8 7 0 54 20 106 44 95 44 197 91 233 107 11 5 27 13 35 19 8 5 77 42 153 82
150 79 156 82 310 175 84 50 268 169 350 225 26 18 117 84 147 108 14 10 57
42 95 71 39 29 72 55 75 58 3 4 50 42 104 85 55 44 107 86 116 95 9 9 61 57
115 106 132 119 343 330 435 434 41 46 84 94 95 107 11 12 27 32 35 44 8 12
32 40 52 63 21 23 38 45 38 49 0 5 10 18 21 29 38 38 234 311 326 454 150 234
292 487 293 523 1 40 -58 -9 -329 -277 -176 -173 -382 -366 -455 -426 -27 -22
-63 -53 -80 -68 -17 -15 -69 -58 -116 -95 -47 -37 -90 -71 -97 -77 -27 -22
-40 -32 -88 -65 -27 -19 -51 -38 -53 -43 -2 -4 -8 -7 -13 -7 -6 0 -15 -4 -22
-10 -55 -45 -149 -107 -265 -175 -9 -6 -71 -42 -137 -81 -154 -91 -357 -199
-505 -267 -41 -19 -114 -53 -163 -76 -48 -23 -89 -41 -91 -41 -3 0 -33 -13
-68 -29 -175 -80 -669 -251 -888 -306 -8 -2 -58 -15 -111 -29 -94 -24 -284
-64 -344 -72 -16 -3 -64 -11 -105 -19 -41 -7 -97 -16 -125 -20 -27 -3 -65 -8
-82 -11 -63 -8 -99 -13 -153 -19 -30 -3 -71 -7 -90 -10 -246 -27 -839 -28
-1115 -1 -27 3 -126 14 -195 21 -64 7 -147 18 -165 21 -11 2 -74 13 -140 25
-100 17 -436 84 -470 93 -5 2 -23 6 -40 10 -16 4 -57 14 -90 22 -33 8 -67 17
-75 18 -225 52 -669 223 -1010 389 -80 39 -148 71 -152 71 -4 1 -13 7 -19 14
-7 6 -17 12 -22 12 -14 0 -316 164 -422 228 -128 78 -334 215 -440 290 -78 57
-311 237 -325 252 -3 3 -54 48 -115 100 -182 157 -480 462 -605 619 -19 25
-46 57 -60 73 -34 39 -39 44 -94 118 -27 36 -53 67 -58 68 -4 2 -8 8 -8 12 0
5 -22 38 -49 73 -26 35 -65 91 -87 123 -21 32 -41 61 -44 64 -8 7 -215 330
-230 360 -7 14 -16 27 -19 30 -3 3 -11 15 -18 26 -286 515 -317 586 -517 1160
-58 168 -121 386 -151 524 -2 8 -12 53 -23 100 -11 47 -26 117 -33 155 -17 99
-18 107 -24 135 -2 14 -7 45 -10 70 -3 25 -8 52 -10 60 -2 8 -7 35 -10 60 -3
25 -7 56 -10 70 -2 14 -7 57 -11 95 -3 39 -8 84 -9 100 -22 214 -29 362 -29
675 -1 275 8 562 18 617 2 10 7 50 10 88 10 99 21 189 31 245 2 8 8 51 15 95
6 44 15 96 20 115 5 19 11 51 14 71 3 20 8 42 10 50 3 8 7 25 10 39 15 86 78
328 117 450 17 52 32 102 34 110 5 24 78 232 135 385 28 77 61 165 71 195 11
30 24 64 30 75 6 12 11 27 13 35 2 8 9 29 15 45 29 70 71 189 67 192 -2 2 -16
-11 -30 -29z"/>
</g>
</svg>
